<svg xmlns="http://www.w3.org/2000/svg" width="134" height="124"><path d="M74.61 6.34l56.48 104.27c2.83 5.23-1.28 11.38-7.61 11.38H10.51c-6.33 0-10.45-6.15-7.61-11.38L59.38 6.34c3.14-5.79 12.09-5.79 15.23 0z" fill-rule="evenodd" stroke-width="4" fill="#b94530" stroke="#8c311b"/><path d="M71.46 36.55l33.02 60.82c1.66 3.05-.75 6.64-4.45 6.64H33.99c-3.7 0-6.1-3.59-4.45-6.64l33.02-60.82a5.173 5.173 0 0 1 8.9 0z" fill="none" stroke="#fff" stroke-width="4"/><path data-name="Rounded Rectangle 1" d="M66.98 60a2 2 0 0 1 2 2v18a2 2 0 0 1-2 2 2.006 2.006 0 0 1-2-2V62a2.006 2.006 0 0 1 2-2z" fill="#fff" fill-rule="evenodd"/><rect data-name="Rounded Rectangle 2" x="65" y="86" width="4" height="4" rx="2" ry="2" fill="#fff"/></svg>