<svg width="125" height="40" viewBox="0 0 125 40" xmlns="http://www.w3.org/2000/svg"><defs><linearGradient x1="29.486%" y1="-6.053%" x2="55.046%" y2="92.181%" id="a"><stop stop-color="#006884" offset="0%"/><stop stop-color="#8AD1D0" offset="100%"/></linearGradient><linearGradient x1="-7.597%" y1="16.007%" x2="91.429%" y2="86.5%" id="b"><stop stop-color="#24BBB6" offset="0%"/><stop stop-color="#DBE692" offset="100%"/></linearGradient><linearGradient x1="49.953%" y1="105.753%" x2="49.953%" y2="-3.151%" id="c"><stop stop-color="#FCC072" offset="0%"/><stop stop-color="#F58A5B" offset="100%"/></linearGradient><linearGradient x1="10.987%" y1="117.512%" x2="90.263%" y2="11.803%" id="d"><stop stop-color="#712B8F" offset="0%"/><stop stop-color="#EA1D27" offset="100%"/></linearGradient></defs><g fill="none"><path d="M122 40H3a3 3 0 0 1-3-3V3a3 3 0 0 1 3-3h119a3 3 0 0 1 3 3v34a3 3 0 0 1-3 3z" fill="#000"/><path d="M7.8 19.6V9.1a1.1 1.1 0 0 1 1-1.1 1.49 1.49 0 0 1 1 .3l19.3 10.6a.83.83 0 0 1 0 1.6L9.8 31.1a2 2 0 0 1-1 .3 1.1 1.1 0 0 1-1-1.1V19.6z" fill="url(#a)"/><path d="M20.3 19.7L8.6 8h.2a1.49 1.49 0 0 1 1 .3L24 16.1l-3.7 3.6z" fill="url(#b)"/><path d="M23.9 23.2l-3.6-3.6 3.7-3.7 5.1 2.8a.83.83 0 0 1 0 1.6l-5.2 2.9z" fill="url(#c)"/><path d="M8.7 31.2l11.6-11.6 3.6 3.6-14.1 7.7a1.61 1.61 0 0 1-1.1.3z" fill="url(#d)"/><path d="M69.1 33.9a4.79 4.79 0 0 1-1.1-1.5l1.6-.7c.153.275.32.542.5.8a2.47 2.47 0 0 0 1.6.8 2.29 2.29 0 0 0 1.7-.8 3.1 3.1 0 0 0 .5-1.7v-.6c-1.2 1.5-3.7 1.3-5.1-.3a4.43 4.43 0 0 1 0-5.9c1.5-1.5 3.7-1.7 5-.3V23h1.7v7.5a4.33 4.33 0 0 1-1.6 3.7 3.69 3.69 0 0 1-2.3.7 4.59 4.59 0 0 1-2.5-1zm41.9.4l1.7-4-3-6.9h1.7l2.1 4.9 2.1-4.9h1.7l-4.6 10.9H111zm-8.1-3.8a2.64 2.64 0 0 1-.7-1.9 2.27 2.27 0 0 1 .6-1.6 3.86 3.86 0 0 1 2.8-1 3.42 3.42 0 0 1 1.8.4 1.7 1.7 0 0 0-1.8-1.7 1.85 1.85 0 0 0-1.7 1.1l-1.5-.6a3.18 3.18 0 0 1 3.1-2 3.39 3.39 0 0 1 2.6 1 3.69 3.69 0 0 1 .8 2.6V31h-1.7v-.7a3.11 3.11 0 0 1-.9.7 3.19 3.19 0 0 1-1.4.3 3.86 3.86 0 0 1-2-.8zm-53.3-3.6a4.15 4.15 0 0 1 4.2-4.2 4.22 4.22 0 0 1 4.2 4.2 4.2 4.2 0 0 1-8.4 0zm9 0a4.15 4.15 0 0 1 4.2-4.2 4.22 4.22 0 0 1 4.2 4.2 4.15 4.15 0 0 1-4.2 4.2 4.22 4.22 0 0 1-4.2-4.2zm-20.3 2.2a6.58 6.58 0 0 1 .1-9.2A6.35 6.35 0 0 1 43 18a6.2 6.2 0 0 1 4.4 1.8l-1.2 1.3a4.47 4.47 0 0 0-6.4.1 4.83 4.83 0 0 0 0 6.7 4.53 4.53 0 0 0 6.6.1 3.6 3.6 0 0 0 .9-2.2h-4.2V24H49c.087.461.12.931.1 1.4a5.76 5.76 0 0 1-1.6 4 6.13 6.13 0 0 1-4.3 1.7 7.43 7.43 0 0 1-4.9-2zm42.3.7a4.56 4.56 0 0 1 0-6 3.64 3.64 0 0 1 5.4 0 5.93 5.93 0 0 1 1.1 1.9L81.6 28a2.13 2.13 0 0 0 2 1.3 2.26 2.26 0 0 0 2.1-1.2l1.5 1a2.65 2.65 0 0 0-.5.6 4.38 4.38 0 0 1-6.1.1zM91 31V19.9h3.6a3.59 3.59 0 0 1 3.8 3.3 3.35 3.35 0 0 1-3.4 3.3h-2.2v4.4L91 31zm8.4 0V19.9h1.7V31h-1.7zm-22.6-.2V18.4h1.8v12.4h-1.8zm30.5-3.1a2.73 2.73 0 0 0-1.6-.4c-1.2 0-1.9.6-1.9 1.3a1.26 1.26 0 0 0 1.4 1.1 2.09 2.09 0 0 0 2.1-2zm-51.2-.8a2.31 2.31 0 1 0-4.6 0 2.37 2.37 0 0 0 2.3 2.5 2.43 2.43 0 0 0 2.3-2.5zm9 0a2.31 2.31 0 1 0-4.6 0 2.31 2.31 0 1 0 4.6 0zm8.9.7a.37.37 0 0 1 .1-.3v-.9c0-.1-.1-.3-.1-.4a2.32 2.32 0 0 0-2.1-1.7 2.43 2.43 0 0 0-2.2 2.5 2.38 2.38 0 0 0 2.3 2.5c.8.1 1.6-.6 2-1.7zm7.3-.9l3.7-1.6a1.67 1.67 0 0 0-1.5-.9 2.42 2.42 0 0 0-2.2 2.5zm15.3-3.4a1.74 1.74 0 0 0-1.9-1.7h-2v3.5h2.1a1.79 1.79 0 0 0 1.8-1.8z" fill="#FFF"/><path d="M112.3 32.3h-.1v-.1h.1-.1v.1h.1zm0 0v-.1.1zm0-.1v.1-.1zm0 .1v-.1.1zm.1-.1v.1-.1zm0 .1v-.1.1zm.1 0v-.1.1-.1.1-.1.1zm.1-.1h-.1.1v.1-.1zm0 .1v-.1.1zM36.9 10.1a2.78 2.78 0 0 1 2.9-2.9 2.66 2.66 0 0 1 2.3 1.2l-.8.5a1.81 1.81 0 0 0-1.5-.7 1.87 1.87 0 0 0-1.9 2 1.87 1.87 0 0 0 1.9 2 2 2 0 0 0 1.3-.5v-.9h-1.6v-.9h2.7V12a2.93 2.93 0 0 1-2.3 1 2.86 2.86 0 0 1-3-2.9zm6.5 2.8V7.3h3.8v.9h-2.9v1.4h2.8v.9h-2.8v1.6h2.9v.9l-3.8-.1zm6.6 0V8.2h-1.7v-.9h4.4v.9H51v4.7h-1zm6.1 0V7.3h1v5.6h-1zm3.7 0V8.2h-1.7v-.9h4.4v.9h-1.7v4.7h-1zm5.9-2.8a2.9 2.9 0 1 1 5.8 0 2.78 2.78 0 0 1-2.9 2.9 2.84 2.84 0 0 1-2.9-2.9zm4.7 0a1.81 1.81 0 0 0-1.9-2 1.92 1.92 0 0 0-1.9 2 1.81 1.81 0 0 0 1.9 2 1.86 1.86 0 0 0 1.9-2zm6.1 2.8l-2.9-4v4h-1V7.3h1l2.9 3.9V7.3h1v5.6h-1z" fill="#FFF"/></g></svg>