<svg width="125" height="40" viewBox="0 0 125 40" xmlns="http://www.w3.org/2000/svg"><g fill="none"><path d="M122 40H3a3 3 0 0 1-3-3V3a3 3 0 0 1 3-3h119a3 3 0 0 1 3 3v34a3 3 0 0 1-3 3z" fill="#000"/><path d="M25 19.8a5.8 5.8 0 0 1 2.7-4.7 6.23 6.23 0 0 0-4.5-2.5c-1.9-.2-3.8 1.1-4.7 1.1-.9 0-2.5-1.1-4.1-1.1a5.94 5.94 0 0 0-5.1 3.1c-2.2 3.8-.6 9.4 1.5 12.5 1.1 1.5 2.3 3.2 3.9 3.1 1.6-.1 2.2-1 4.1-1 1.9 0 2.4 1 4.1 1 1.7 0 2.8-1.5 3.8-3a11.46 11.46 0 0 0 1.7-3.5 5.53 5.53 0 0 1-3.4-5zm-3.1-9.2a6.2 6.2 0 0 0 1.3-4 5.36 5.36 0 0 0-3.6 1.9 5.06 5.06 0 0 0-1.3 3.8 4.75 4.75 0 0 0 3.6-1.7zm25.9 20.5h-2.2l-1.2-3.8h-4.2l-1.1 3.8H37l4.2-12.9h2.6l4 12.9zM44 25.7l-1.1-3.4c-.1-.3-.3-1.2-.7-2.4-.1.5-.3 1.4-.6 2.4l-1.1 3.4H44zm14.5.7a5.32 5.32 0 0 1-1.3 3.8 3.85 3.85 0 0 1-2.9 1.2 2.72 2.72 0 0 1-2.6-1.3V35h-2.1V25c0-1 0-2-.1-3.1h1.8l.1 1.5a3.45 3.45 0 0 1 3.1-1.7 3.23 3.23 0 0 1 2.7 1.3 4.24 4.24 0 0 1 1.3 3.4zm-2.1 0a3.59 3.59 0 0 0-.6-2.2 2 2 0 0 0-1.8-.9 2.39 2.39 0 0 0-1.4.5 2.22 2.22 0 0 0-.8 1.3 1.76 1.76 0 0 0-.1.6v1.6a2.52 2.52 0 0 0 .6 1.7 2 2 0 0 0 1.6.7 2 2 0 0 0 1.8-.9 3.61 3.61 0 0 0 .7-2.4zm12.8 0a5.32 5.32 0 0 1-1.3 3.8 3.85 3.85 0 0 1-2.9 1.2 2.72 2.72 0 0 1-2.6-1.3V35h-2.1V25c0-1 0-2-.1-3.1H62l.1 1.5a3.45 3.45 0 0 1 3.1-1.7 3.23 3.23 0 0 1 2.7 1.3 4.24 4.24 0 0 1 1.3 3.4zm-2.1 0a3.59 3.59 0 0 0-.6-2.2 2 2 0 0 0-1.8-.9 2.39 2.39 0 0 0-1.4.5 2.22 2.22 0 0 0-.8 1.3 1.76 1.76 0 0 0-.1.6v1.6A2.52 2.52 0 0 0 63 29a2 2 0 0 0 1.6.7 2 2 0 0 0 1.8-.9 3.61 3.61 0 0 0 .7-2.4zm14.1 1.1a3.69 3.69 0 0 1-1.1 2.7 4.76 4.76 0 0 1-3.5 1.1 6.18 6.18 0 0 1-3.3-.8l.5-1.7a6.11 6.11 0 0 0 3 .8 3 3 0 0 0 1.8-.5 1.82 1.82 0 0 0 .6-1.4 1.9 1.9 0 0 0-.5-1.3 5 5 0 0 0-1.8-1c-2.3-.8-3.4-2.1-3.4-3.7a3.22 3.22 0 0 1 1.2-2.6 4.55 4.55 0 0 1 3.2-1c1-.036 1.995.17 2.9.6l-.5 1.7a4.87 4.87 0 0 0-2.5-.6 2.86 2.86 0 0 0-1.7.5 1.66 1.66 0 0 0-.5 1.2c.007.499.225.971.6 1.3a7.76 7.76 0 0 0 1.9 1 6.75 6.75 0 0 1 2.5 1.6 4 4 0 0 1 .6 2.1zm6.8-4.1h-2.3v4.5c0 1.1.4 1.7 1.2 1.7.304.029.61-.005.9-.1l.1 1.6a3.66 3.66 0 0 1-1.6.2 2.35 2.35 0 0 1-1.9-.7 3.4 3.4 0 0 1-.7-2.5v-4.7h-1.4v-1.6h1.4v-1.7l2-.6v2.3H88v1.6zm10.3 3a5.13 5.13 0 0 1-1.2 3.5 4.6 4.6 0 0 1-3.4 1.4 4.22 4.22 0 0 1-3.3-1.4 4.87 4.87 0 0 1-1.2-3.4 4.75 4.75 0 0 1 1.3-3.5 4.44 4.44 0 0 1 3.4-1.4 4.22 4.22 0 0 1 3.3 1.4 5.33 5.33 0 0 1 1.1 3.4zm-2.2.1a3.8 3.8 0 0 0-.6-2.2 2.19 2.19 0 0 0-3.8 0 4 4 0 0 0-.6 2.2 3.8 3.8 0 0 0 .6 2.2 2.14 2.14 0 0 0 1.9 1.1 2.26 2.26 0 0 0 1.9-1.1 4 4 0 0 0 .6-2.2zm8.9-2.9c-.2 0-.4-.1-.7-.1a2.14 2.14 0 0 0-1.7.8 3.45 3.45 0 0 0-.5 1.8V31H100v-6.4a26.22 26.22 0 0 0-.1-2.9h1.8l.1 1.8h.1a4 4 0 0 1 1-1.5 3 3 0 0 1 1.5-.5h.5l.1 2.1zm9.2 2.4a2.22 2.22 0 0 1-.1.9h-6.2a2.58 2.58 0 0 0 .9 2.1 3.22 3.22 0 0 0 2 .7 6.57 6.57 0 0 0 2.5-.4l.3 1.4a7.45 7.45 0 0 1-3.1.6 4.38 4.38 0 0 1-3.4-1.3 4.7 4.7 0 0 1-1.2-3.4 5.62 5.62 0 0 1 1.1-3.5 4 4 0 0 1 3.3-1.5 3.33 3.33 0 0 1 3 1.5 4.2 4.2 0 0 1 .9 2.9zm-1.9-.5a2.93 2.93 0 0 0-.4-1.6 1.8 1.8 0 0 0-1.6-.9 1.94 1.94 0 0 0-1.6.8 3.82 3.82 0 0 0-.6 1.6h4.2v.1zM43.4 10.3a3.25 3.25 0 0 1-1 2.6 4.14 4.14 0 0 1-2.7.8 6.62 6.62 0 0 1-1.5-.1V7.4a9.72 9.72 0 0 1 1.8-.1 3.73 3.73 0 0 1 2.5.7 3.24 3.24 0 0 1 .9 2.3zm-1.1 0a2.35 2.35 0 0 0-.6-1.7A2.35 2.35 0 0 0 40 8a2 2 0 0 0-.8.1v4.7h.7a2.44 2.44 0 0 0 1.8-.6 2.71 2.71 0 0 0 .6-1.9zm6.7 1a2.35 2.35 0 0 1-.6 1.7 2.06 2.06 0 0 1-1.7.7 1.86 1.86 0 0 1-1.6-.7 2.35 2.35 0 0 1-.6-1.7 2.35 2.35 0 0 1 .6-1.7 2.06 2.06 0 0 1 1.7-.7 1.86 1.86 0 0 1 1.6.7 2.35 2.35 0 0 1 .6 1.7zm-1 0a2 2 0 0 0-.3-1.1.87.87 0 0 0-.9-.5 1.05 1.05 0 0 0-.9.5 2.17 2.17 0 0 0 0 2.2.87.87 0 0 0 .9.5 1 1 0 0 0 .9-.6 1.49 1.49 0 0 0 .3-1zM56.7 9l-1.4 4.6h-.9l-.6-2a8.33 8.33 0 0 1-.4-1.5 8.33 8.33 0 0 1-.4 1.5l-.6 2h-.9L50 9h1l.5 2.2.3 1.5c.1-.4.2-.9.4-1.5l.6-2.2h.8l.6 2.1c.18.486.314.989.4 1.5l.3-1.5.6-2.1h1.2zm5.2 4.6h-1V11c0-.8-.3-1.2-.9-1.2a.91.91 0 0 0-.7.3 1.14 1.14 0 0 0-.3.8v2.7h-1V9h.9v.7a2.65 2.65 0 0 1 .5-.6 1.61 1.61 0 0 1 .9-.3 1.5 1.5 0 0 1 1.1.4c.4.39.587.948.5 1.5v2.9zm2.8 0h-1V6.9h1v6.7zm6-2.3a2.35 2.35 0 0 1-.6 1.7 2.06 2.06 0 0 1-1.7.7 1.86 1.86 0 0 1-1.6-.7 2.35 2.35 0 0 1-.6-1.7 2.35 2.35 0 0 1 .6-1.7 2.41 2.41 0 0 1 1.7-.7 1.86 1.86 0 0 1 1.6.7 2.35 2.35 0 0 1 .6 1.7zm-1 0a2 2 0 0 0-.3-1.1.87.87 0 0 0-.9-.5 1.05 1.05 0 0 0-.9.5 2.17 2.17 0 0 0 0 2.2.87.87 0 0 0 .9.5 1 1 0 0 0 .9-.6 1.49 1.49 0 0 0 .3-1zm5.9 2.3h-.9l-.1-.5a1.61 1.61 0 0 1-1.3.6 1.16 1.16 0 0 1-1-.4 1.8 1.8 0 0 1-.4-.9 1.36 1.36 0 0 1 .7-1.3 3.74 3.74 0 0 1 2-.4v-.1a.8.8 0 0 0-.9-.9 2.38 2.38 0 0 0-1.2.3l-.2-.7a2.54 2.54 0 0 1 1.6-.4c1.2 0 1.8.6 1.8 1.9v1.7a4.91 4.91 0 0 0-.1 1.1zm-1-1.6v-.7c-1.1 0-1.7.3-1.7.9a.68.68 0 0 0 .7.7c.212-.02.418-.09.6-.2a1 1 0 0 0 .4-.5V12zm6.8 1.6h-.9v-.7a1.48 1.48 0 0 1-1.5.8 1.82 1.82 0 0 1-1.4-.6 2.31 2.31 0 0 1-.5-1.7 2.79 2.79 0 0 1 .6-1.8 2 2 0 0 1 1.4-.6 1.49 1.49 0 0 1 1.3.6V7h1v6.6zm-1-1.9v-1.1a2.09 2.09 0 0 0-.4-.6.84.84 0 0 0-.7-.2 1.05 1.05 0 0 0-.9.5 2.13 2.13 0 0 0-.3 1.2 1.8 1.8 0 0 0 .3 1.1c.192.312.533.502.9.5a.91.91 0 0 0 .8-.4 2.24 2.24 0 0 0 .3-1zm9.7-.4a2.35 2.35 0 0 1-.6 1.7 2.06 2.06 0 0 1-1.7.7 1.86 1.86 0 0 1-1.6-.7 2.35 2.35 0 0 1-.6-1.7 2.35 2.35 0 0 1 .6-1.7 2.06 2.06 0 0 1 1.7-.7 1.86 1.86 0 0 1 1.6.7 2.35 2.35 0 0 1 .6 1.7zm-1.1 0a2 2 0 0 0-.3-1.1.87.87 0 0 0-.9-.5 1.05 1.05 0 0 0-.9.5 2.17 2.17 0 0 0 0 2.2.87.87 0 0 0 .9.5 1 1 0 0 0 .9-.6 1.49 1.49 0 0 0 .3-1zm6.6 2.3h-1V11c0-.8-.3-1.2-.9-1.2a.91.91 0 0 0-.7.3 1.14 1.14 0 0 0-.3.8v2.7h-1V9h.9v.7a2.65 2.65 0 0 1 .5-.6 1.61 1.61 0 0 1 .9-.3 1.5 1.5 0 0 1 1.1.4c.4.39.587.948.5 1.5v2.9zm6.8-3.8h-1.1V12c0 .6.2.8.6.8h.5v.8a2 2 0 0 1-.8.1 1 1 0 0 1-.9-.4 1.92 1.92 0 0 1-.3-1.2V9.8h-.7V9h.7v-.8l1-.3V9h1.1v.8h-.1zm5.4 3.8h-1V11c0-.8-.3-1.2-.9-1.2a1 1 0 0 0-1 .7v3.1h-1V6.9h1v2.8a1.6 1.6 0 0 1 1.4-.8 1.16 1.16 0 0 1 1 .4c.343.423.52.956.5 1.5v2.8zm5.5-2.5v.5h-3a1.33 1.33 0 0 0 .4 1 1.69 1.69 0 0 0 1 .3 3.73 3.73 0 0 0 1.2-.2l.2.7a3.34 3.34 0 0 1-1.5.3 2.35 2.35 0 0 1-1.7-.6 2.35 2.35 0 0 1-.6-1.7 2.35 2.35 0 0 1 .6-1.7 1.86 1.86 0 0 1 1.6-.7 1.58 1.58 0 0 1 1.5.7c.227.43.33.915.3 1.4zm-.9-.3a1.88 1.88 0 0 0-.2-.8.81.81 0 0 0-.8-.4.91.91 0 0 0-.8.4 1.14 1.14 0 0 0-.3.8h2.1z" fill="#FFF"/></g></svg>