<svg width="120" height="34" viewBox="0 0 120 34" xmlns="http://www.w3.org/2000/svg"><g fill="none" fill-rule="evenodd"><path d="M36.34 26.52h-2.22V9.1h10.09v2.14h-7.87v5.72h7.1v2.09h-7.1v7.47zm12.05-14.91a1.562 1.562 0 0 1-1.98.2 1.6 1.6 0 0 1-.59-1.93 1.573 1.573 0 0 1 3.03.61c.007.42-.16.826-.46 1.12zm0 14.91h-2.22V14.6h2.22v11.92zm4.88 0h-2.22V14.6h2.12v1.95h.1a3.054 3.054 0 0 1 1.39-1.61 3.98 3.98 0 0 1 2.04-.63c.57-.02 1.14.08 1.67.29l-.85 2.09a3.159 3.159 0 0 0-1.18-.17 2.874 2.874 0 0 0-2.14.96 3.469 3.469 0 0 0-.93 2.52v6.52zm11.19.38a5.687 5.687 0 0 1-4.36-1.8 6.388 6.388 0 0 1-1.68-4.54 6.642 6.642 0 0 1 1.63-4.48 5.288 5.288 0 0 1 4.16-1.87 5.459 5.459 0 0 1 4.22 1.73 6.59 6.59 0 0 1 1.58 4.62l-.02.42h-9.35a4.064 4.064 0 0 0 1.19 2.85 3.6 3.6 0 0 0 2.57 1.04 3.183 3.183 0 0 0 3.24-2.04l1.98.83a5.332 5.332 0 0 1-1.91 2.32 5.583 5.583 0 0 1-3.25.92zm3.18-7.79a3.117 3.117 0 0 0-.93-1.95 3.247 3.247 0 0 0-2.55-.9 3.146 3.146 0 0 0-2.14.78 3.973 3.973 0 0 0-1.24 2.09l6.86-.02zm10.4 7.79a4.988 4.988 0 0 1-2.42-.57 4.088 4.088 0 0 1-1.6-1.46h-.1v1.65h-2.13V9.1h2.23v5.5l-.1 1.65h.1a4.165 4.165 0 0 1 1.6-1.46 5.112 5.112 0 0 1 2.42-.58A5.2 5.2 0 0 1 82 16.03a6.979 6.979 0 0 1 0 9.06 5.16 5.16 0 0 1-3.96 1.81zm-.36-2.04a3.527 3.527 0 0 0 2.66-1.18 4.968 4.968 0 0 0 0-6.26 3.61 3.61 0 0 0-5.33-.01 5.028 5.028 0 0 0 .01 6.29 3.523 3.523 0 0 0 2.67 1.17l-.01-.01zm11.65 2.04a4.627 4.627 0 0 1-3.15-1.09 3.634 3.634 0 0 1-1.27-2.9 3.579 3.579 0 0 1 1.5-3.05 6.031 6.031 0 0 1 3.69-1.11 6.354 6.354 0 0 1 3.21.73v-.34c.03-.8-.3-1.57-.9-2.1a3.141 3.141 0 0 0-2.19-.78 3.371 3.371 0 0 0-1.75.46c-.5.281-.883.732-1.08 1.27l-2.02-.88a4.606 4.606 0 0 1 1.61-1.99 5.1 5.1 0 0 1 3.19-.92 5.555 5.555 0 0 1 3.78 1.33 4.8 4.8 0 0 1 1.5 3.78v7.21h-2.14v-1.65h-.09a4.377 4.377 0 0 1-3.89 2.03zm.36-2.04a3.569 3.569 0 0 0 2.5-1.03 3.176 3.176 0 0 0 1.13-2.44 4.344 4.344 0 0 0-2.83-.78 3.662 3.662 0 0 0-2.44.71 2.114 2.114 0 0 0-.82 1.65 1.61 1.61 0 0 0 .76 1.39c.5.342 1.094.52 1.7.51v-.01zm12.29 2.04a5.269 5.269 0 0 1-3.27-.97 5.785 5.785 0 0 1-1.89-2.43l1.99-.83a3.261 3.261 0 0 0 3.2 2.24c.6.021 1.193-.14 1.7-.46a1.44 1.44 0 0 0 .67-1.22c0-.78-.54-1.31-1.62-1.58l-2.39-.59a5.638 5.638 0 0 1-2.15-1.1 2.691 2.691 0 0 1-1.02-2.2 3.01 3.01 0 0 1 1.39-2.57 5.542 5.542 0 0 1 3.3-.98 5.41 5.41 0 0 1 2.8.72 4.065 4.065 0 0 1 1.76 2.05l-1.93.8a2.621 2.621 0 0 0-2.71-1.58 3.1 3.1 0 0 0-1.66.41c-.418.217-.68.65-.68 1.12 0 .68.52 1.14 1.57 1.39l2.34.56a4.386 4.386 0 0 1 2.47 1.33c.516.593.797 1.354.79 2.14a3.339 3.339 0 0 1-1.3 2.68 5.145 5.145 0 0 1-3.36 1.07zm11.96 0a5.687 5.687 0 0 1-4.36-1.8 6.4 6.4 0 0 1-1.68-4.55 6.642 6.642 0 0 1 1.63-4.48 5.267 5.267 0 0 1 4.17-1.86 5.444 5.444 0 0 1 4.22 1.73 6.636 6.636 0 0 1 1.58 4.62l-.03.42h-9.35a4.064 4.064 0 0 0 1.19 2.85 3.62 3.62 0 0 0 2.58 1.04 3.2 3.2 0 0 0 3.24-2.05l1.98.83a5.344 5.344 0 0 1-1.91 2.32 5.547 5.547 0 0 1-3.26.93zm3.19-7.79a3.224 3.224 0 0 0-.93-1.95 3.275 3.275 0 0 0-2.55-.9 3.111 3.111 0 0 0-2.14.78 3.91 3.91 0 0 0-1.24 2.09l6.86-.02zM1.3 22.35L4.62 1.2c.052-.32.3-.573.62-.63a.773.773 0 0 1 .8.39L9.6 7.6 1.3 22.35zm23.53 5.13L21.68 8.02a.768.768 0 0 0-1.29-.41L.5 27.48l11 6.16c.695.38 1.535.38 2.23 0l11.1-6.16zM15.89 10.5l-2.55-4.84a.761.761 0 0 0-1.35 0L.8 25.57 15.89 10.5z" fill="#BFBFBF"/><path d="M-30-60h180V95H-30z"/></g></svg>