<svg width="94" height="73" viewBox="0 0 94 73" xmlns="http://www.w3.org/2000/svg"><g transform="translate(-45 -21)" fill="none" fill-rule="evenodd"><path d="M0 0h180v115H0z"/><rect fill="#9E3621" fill-rule="nonzero" opacity=".75" x="45" y="82" width="6" height="6" rx="1"/><rect fill="#9E3621" fill-rule="nonzero" opacity=".25" x="53" y="90" width="4" height="4" rx="1"/><rect fill="#9E3621" fill-rule="nonzero" opacity=".5" x="133" y="25" width="6" height="6" rx="1"/><rect fill="#9E3621" fill-rule="nonzero" opacity=".25" x="124" y="21" width="4" height="4" rx="1"/><g transform="translate(58 30)"><path d="M44 8H32a3 3 0 0 0-3 3v3h-4V9a3 3 0 0 0-3-3H9a3 3 0 0 0-3 3v44a3 3 0 0 0 3 3h58a3 3 0 0 0 3-3V9a3 3 0 0 0-3-3H54a3 3 0 0 0-3 3v5h-4v-3a3 3 0 0 0-3-3z" fill="#E7CDC7"/><path d="M38 2H26a3 3 0 0 0-3 3v3h-4V3a3 3 0 0 0-3-3H3a3 3 0 0 0-3 3v44a3 3 0 0 0 3 3h58a3 3 0 0 0 3-3V3a3 3 0 0 0-3-3H48a3 3 0 0 0-3 3v5h-4V5a3 3 0 0 0-3-3z" fill="#FFF"/><path d="M61 50H47v-2h14a1 1 0 0 0 1-1V3a1 1 0 0 0-1-1H48a1 1 0 0 0-1 1v7h-8V5a1 1 0 0 0-1-1H26a1 1 0 0 0-1 1v5h-8V3a1 1 0 0 0-1-1H3a1 1 0 0 0-1 1v44a1 1 0 0 0 1 1h13v2H3a3 3 0 0 1-3-3V3a3 3 0 0 1 3-3h13a3 3 0 0 1 3 3v5h4V5a3 3 0 0 1 3-3h12a3 3 0 0 1 3 3v3h4V3a3 3 0 0 1 3-3h13a3 3 0 0 1 3 3v44a3 3 0 0 1-3 3z" fill="#9E3621"/><path d="M10 23h44a3 3 0 0 1 3 3v12a3 3 0 0 1-3 3H10a3 3 0 0 1-3-3V26a3 3 0 0 1 3-3z" stroke="#9E3621" stroke-width="2" fill="#FAFAFA"/><circle stroke="#9E3621" stroke-width="2" cx="17" cy="32" r="2"/><circle stroke="#9E3621" stroke-width="2" cx="27" cy="32" r="2"/><circle stroke="#9E3621" stroke-width="2" cx="37" cy="32" r="2"/><circle stroke="#9E3621" stroke-width="2" cx="47" cy="32" r="2"/></g></g></svg>