<svg data-name="Icon Optim" xmlns="http://www.w3.org/2000/svg" width="140" height="90"><path d="M33 8h94a3 3 0 0 1 3 3v72H30V11a3 3 0 0 1 3-3z" opacity=".25" fill="#9e3621"/><path d="M23 19h94a2 2 0 0 1 2 2v62H21V21a2 2 0 0 1 2-2z" fill="#fff"/><path d="M139 84H1a1 1 0 0 1-1-1 1 1 0 0 1 1-1h19V21a3 3 0 0 1 3-3h94a3 3 0 0 1 3 3v61h19a1 1 0 0 1 1 1 1 1 0 0 1-1 1zm-21-63a1 1 0 0 0-1-1H23a1 1 0 0 0-1 1v61h96V21zM60.293 44.293a1 1 0 0 1 1.414 0L68.414 51l-6.707 6.707a1 1 0 0 1-1.414-1.414L65.586 51l-5.293-5.293a1 1 0 0 1 0-1.414zM71 56h10a1 1 0 0 1 1 1 1 1 0 0 1-1 1H71a1 1 0 0 1-1-1 1 1 0 0 1 1-1zM26 88h23a1 1 0 0 1 1 1 1 1 0 0 1-1 1H26a1 1 0 0 1-1-1 1 1 0 0 1 1-1zm30 0h8a1 1 0 0 1 0 2h-8a1 1 0 0 1 0-2zm15 0h43a1 1 0 0 1 1 1 1 1 0 0 1-1 1H71a1 1 0 0 1-1-1 1 1 0 0 1 1-1z" fill-rule="evenodd" fill="#9e3621"/></svg>