<svg width="240" height="129" viewBox="0 0 240 129" xmlns="http://www.w3.org/2000/svg"><g fill="none" fill-rule="evenodd" opacity=".5"><path d="M185.39 120.54S198 93.69 198 78c0-43.078-34.922-78-78-78S42 34.922 42 78c0 16.04 13.15 43.36 13.15 43.36l130.24-.82z" fill="#EDEDEE"/><rect fill="#A6A7AA" fill-rule="nonzero" x="48" y="38" width="155" height="85" rx="3"/><rect stroke="#B7B8BB" stroke-width="2" fill="#E8E9E9" fill-rule="nonzero" x="38" y="48" width="155" height="75" rx="3"/><path d="M55.5 65h121a1.5 1.5 0 0 1 1.5 1.5v10a1.5 1.5 0 0 1-1.5 1.5h-121a1.5 1.5 0 0 1-1.5-1.5v-10a1.5 1.5 0 0 1 1.5-1.5zm0 26h121a1.5 1.5 0 0 1 1.5 1.5v10a1.5 1.5 0 0 1-1.5 1.5h-121a1.5 1.5 0 0 1-1.5-1.5v-10a1.5 1.5 0 0 1 1.5-1.5z" stroke="#A6A7AA" stroke-width="2" fill="#BCBDBF"/><path d="M61 123l142-57v54a3 3 0 0 1-3 3H61z" fill="#000" fill-rule="nonzero" opacity=".05"/><rect fill="#B3B4B8" fill-rule="nonzero" y="121" width="240" height="2" rx="1"/><rect fill="#B3B4B8" fill-rule="nonzero" x="44" y="127" width="128" height="2" rx="1"/><rect fill="#B3B4B8" fill-rule="nonzero" x="178" y="127" width="18" height="2" rx="1"/></g></svg>