<svg xmlns="http://www.w3.org/2000/svg" width="140" height="90"><path d="M51 0h60a3 3 0 0 1 3 3v80H48V3a3 3 0 0 1 3-3z" opacity=".25" fill="#9e3621"/><path d="M41 11h60a2 2 0 0 1 2 2v70H39V13a2 2 0 0 1 2-2z" fill="#fff"/><path d="M139 84H1a1 1 0 0 1-1-1 1 1 0 0 1 1-1h37V13a3 3 0 0 1 3-3h60a3 3 0 0 1 3 3v69h35a1 1 0 0 1 1 1 1 1 0 0 1-1 1zM46 12h-5a1 1 0 0 0-1 1v69h6V12zm46 0h-9v10.612l5.031-1.677L92 22.523V12zm10 1a1 1 0 0 0-1-1h-7v13.477l-6.031-2.412L81 25.388V12H48v70h54V13zM57.5 73a1.5 1.5 0 1 1 1.5-1.5 1.5 1.5 0 0 1-1.5 1.5zm0-12a1.5 1.5 0 1 1 1.5-1.5 1.5 1.5 0 0 1-1.5 1.5zm0-12a1.5 1.5 0 1 1 1.5-1.5 1.5 1.5 0 0 1-1.5 1.5zm0-12a1.5 1.5 0 1 1 1.5-1.5 1.5 1.5 0 0 1-1.5 1.5zm0-12a1.5 1.5 0 1 1 1.5-1.5 1.5 1.5 0 0 1-1.5 1.5zM26 88h63a1 1 0 0 1 0 2H26a1 1 0 0 1 0-2zm70 0h18a1 1 0 0 1 0 2H96a1 1 0 1 1 0-2z" fill-rule="evenodd" fill="#9e3621"/></svg>