<svg xmlns="http://www.w3.org/2000/svg" width="140" height="90"><path d="M53 0h54a3 3 0 0 1 3 3v80H50V3a3 3 0 0 1 3-3z" opacity=".25" fill="#9e3621"/><path d="M116 71H99v12H41V13a2 2 0 0 1 2-2h54a2 2 0 0 1 2 2v40h17a2 2 0 0 1 2 2v14a2 2 0 0 1-2 2z" fill-rule="evenodd" fill="#fff"/><path d="M139 84H1a1 1 0 0 1-1-1 1 1 0 0 1 1-1h39V13a3 3 0 0 1 3-3h54a3 3 0 0 1 3 3v39h16a3 3 0 0 1 3 3v14a3 3 0 0 1-3 3h-16v10h39a1 1 0 0 1 1 1 1 1 0 0 1-1 1zM98 13a1 1 0 0 0-1-1H43a1 1 0 0 0-1 1v69h56V72H78a3 3 0 0 1-3-3V55a3 3 0 0 1 3-3h20V13zm18 57a1 1 0 0 0 1-1V55a1 1 0 0 0-1-1H78a1 1 0 0 0-1 1v14a1 1 0 0 0 1 1h38zm-32.012-6.888V59.9h-1.925v-1.815h3.96v5.3c0 1.914-1.353 2.563-2.871 2.563a6.13 6.13 0 0 1-1.991-.363v-1.87a3.281 3.281 0 0 0 1.474.363c.726.002 1.353-.218 1.353-.966zm4.332-2.9c0-1.54 1.32-2.266 2.9-2.266a5.409 5.409 0 0 1 2.585.616v1.87a3.963 3.963 0 0 0-2.42-.726c-.748.011-.979.209-.979.5 0 1 4 .693 4 3.421 0 1.826-1.4 2.354-3.081 2.354a6.161 6.161 0 0 1-2.959-.7v-1.928a4.976 4.976 0 0 0 2.806.869c.8 0 1.144-.132 1.144-.517.009-1.112-3.996-.738-3.996-3.488zM100 58.013a4.017 4.017 0 1 1-4.126 4.016A3.837 3.837 0 0 1 100 58.013zm0 6.161a2.148 2.148 0 1 0-2.035-2.145A1.947 1.947 0 0 0 100 64.174zm11.029-1.508a17.084 17.084 0 0 1-.044-1.342v-3.277h1.937v7.9H111l-3.02-4.547c.033.363.044.913.044 1.331v3.278h-2.035v-7.962h1.925zM52 37a1 1 0 0 1 1-1h34a1 1 0 1 1 0 2H53a1 1 0 0 1-1-1zm35-9H53a1 1 0 1 1 0-2h34a1 1 0 1 1 0 2zM53 46h14a1 1 0 1 1 0 2H53a1 1 0 1 1 0-2zM26 88h88a1 1 0 1 1 0 2H26a1 1 0 0 1 0-2z" fill-rule="evenodd" fill="#9e3621"/></svg>