<svg width="210" height="114" viewBox="0 0 210 114" xmlns="http://www.w3.org/2000/svg"><g fill="none" fill-rule="evenodd" opacity=".5"><path d="M147.82 106.83S167 79.63 167 62c0-34.242-27.758-62-62-62-34.242 0-62 27.758-62 62 0 17.81 19.53 45.17 19.53 45.17l85.29-.34z" fill="#EDEDEE"/><rect fill="#A6A7AA" fill-rule="nonzero" x="45" y="23" width="125" height="85" rx="3"/><rect stroke="#B7B8BB" stroke-width="2" fill="#E8E9E9" fill-rule="nonzero" x="35" y="33" width="125" height="75" rx="3"/><path d="M52.5 68h91a1.5 1.5 0 0 1 1.5 1.5v10a1.5 1.5 0 0 1-1.5 1.5h-91a1.5 1.5 0 0 1-1.5-1.5v-10a1.5 1.5 0 0 1 1.5-1.5zm0-15h40a1.5 1.5 0 0 1 1.5 1.5v3a1.5 1.5 0 0 1-1.5 1.5h-40a1.5 1.5 0 0 1-1.5-1.5v-3a1.5 1.5 0 0 1 1.5-1.5z" stroke="#A6A7AA" stroke-width="2" fill="#BCBDBF"/><path d="M58 108l117-57v54a3 3 0 0 1-3 3H58z" fill="#000" fill-rule="nonzero" opacity=".05"/><rect fill="#B3B4B8" fill-rule="nonzero" y="106" width="210" height="2" rx="1"/><rect fill="#B3B4B8" fill-rule="nonzero" x="44" y="112" width="98" height="2" rx="1"/><rect fill="#B3B4B8" fill-rule="nonzero" x="148" y="112" width="18" height="2" rx="1"/></g></svg>