<svg width="240" height="139" viewBox="0 0 240 139" xmlns="http://www.w3.org/2000/svg"><g fill="none" opacity=".5"><path d="M185.39 120.54S198 93.69 198 78c0-43.078-34.922-78-78-78S42 34.922 42 78c0 16.04 13.15 43.36 13.15 43.36l130.24-.82z" fill="#EDEDEE"/><rect fill="#A6A7AA" x="48" y="28" width="155" height="105" rx="3"/><rect stroke="#B7B8BB" stroke-width="2" fill="#E8E9E9" x="38" y="38" width="155" height="95" rx="3"/><rect stroke="#B7B8BB" stroke-width="2" fill="#E8E9E9" x="52" y="49" width="4" height="4" rx="2"/><rect stroke="#B7B8BB" stroke-width="2" fill="#E8E9E9" x="60" y="49" width="4" height="4" rx="2"/><rect stroke="#B7B8BB" stroke-width="2" fill="#E8E9E9" x="68" y="49" width="4" height="4" rx="2"/><path d="M61 133l142-67v64a3 3 0 0 1-3 3H61z" fill="#000" opacity=".05"/><rect fill="#B3B4B8" y="131" width="240" height="2" rx="1"/><rect fill="#B3B4B8" x="44" y="137" width="128" height="2" rx="1"/><rect fill="#B3B4B8" x="178" y="137" width="18" height="2" rx="1"/></g></svg>