<svg width="77" height="72" viewBox="0 0 77 72" xmlns="http://www.w3.org/2000/svg"><g transform="translate(-51 -44)" fill="none" fill-rule="evenodd"><path d="M0 0h180v150H0z"/><rect fill="#9E3621" fill-rule="nonzero" opacity=".5" x="58" y="57" width="2" height="2" rx="1"/><rect fill="#9E3621" fill-rule="nonzero" opacity=".75" x="58" y="47" width="6" height="6" rx="1"/><rect fill="#9E3621" fill-rule="nonzero" opacity=".25" x="51" y="53" width="4" height="4" rx="1"/><rect fill="#9E3621" fill-rule="nonzero" opacity=".5" x="116" y="110" width="6" height="6" rx="1"/><rect fill="#9E3621" fill-rule="nonzero" opacity=".25" x="124" y="105" width="4" height="4" rx="1"/><path d="M113 73.99h-2.02c0-.83.01-2.59.01-6.22C110.99 59.06 104.28 52 96 52c-8.28 0-14.99 7.06-14.99 15.77 0 3.63 0 5.39.01 6.22H79a4 4 0 0 0-4 4V102a4 4 0 0 0 4 4h34a4 4 0 0 0 4-4V77.99a4 4 0 0 0-4-4z" fill="#E7CDC7"/><path d="M73 68h34a4 4 0 0 1 4 4v24a4 4 0 0 1-4 4H73a4 4 0 0 1-4-4V72a4 4 0 0 1 4-4z" fill="#FAFAFA" fill-rule="nonzero"/><path d="M104.96 68.48s.03 1.01.03-7.7S98.28 45.02 90 45.02c-8.28 0-14.99 7.06-14.99 15.76s.03 7.7.03 7.7" stroke="#9E3621" stroke-width="2" fill="#FAFAFA"/><path d="M73 70h14a1 1 0 0 0 0-2H73a4 4 0 0 0-4 4v24a4 4 0 0 0 4 4h14a1 1 0 0 0 0-2H73a2.006 2.006 0 0 1-2-2V85h11a1 1 0 0 0 0-2H71V72a2.006 2.006 0 0 1 2-2zm34-2H93a1 1 0 0 0 0 2h14a2.006 2.006 0 0 1 2 2v11H98a1 1 0 0 0 0 2h11v11a2.006 2.006 0 0 1-2 2H93a1 1 0 0 0 0 2h14a4 4 0 0 0 4-4V72a4 4 0 0 0-4-4zM90 82a2 2 0 1 1 0 4 2 2 0 0 1 0-4z" fill="#9E3621"/></g></svg>