<svg width="48" height="54" viewBox="0 0 48 54" xmlns="http://www.w3.org/2000/svg"><g fill="none" fill-rule="evenodd"><path d="M24 53.09a4.132 4.132 0 0 1-2.01-.53l-6.38-3.78c-.96-.53-.48-.72-.19-.82a11.8 11.8 0 0 0 2.87-1.29.426.426 0 0 1 .48.05l4.89 2.92c.18.1.4.1.58 0l19.13-11.07a.563.563 0 0 0 .29-.53v-22.1a.563.563 0 0 0-.29-.53L24.24 4.38a.655.655 0 0 0-.58 0L4.54 15.41a.6.6 0 0 0-.29.53v22.1a.6.6 0 0 0 .29.53l5.22 3.02c2.83 1.43 4.6-.24 4.6-1.92V17.86a.587.587 0 0 1 .58-.58h2.44a.587.587 0 0 1 .58.58v21.81c0 3.79-2.06 5.99-5.66 5.99-1.1 0-1.96 0-4.41-1.2l-5.03-2.87a4.047 4.047 0 0 1-2.01-3.5v-22.1a4.035 4.035 0 0 1 2.01-3.5L21.99 1.41a4.271 4.271 0 0 1 4.02 0l19.13 11.08a4.044 4.044 0 0 1 2.02 3.5v22.1a4.056 4.056 0 0 1-2.02 3.5L26.01 52.66a4.845 4.845 0 0 1-2.01.43zm5.9-15.2c-8.39 0-10.12-3.83-10.12-7.09a.587.587 0 0 1 .58-.58h2.49a.5.5 0 0 1 .53.48c.38 2.54 1.48 3.79 6.57 3.79 4.02 0 5.75-.91 5.75-3.07 0-1.24-.48-2.15-6.76-2.78-5.23-.53-8.49-1.68-8.49-5.85 0-3.88 3.26-6.18 8.73-6.18 6.13 0 9.15 2.11 9.54 6.71a.748.748 0 0 1-.15.43.559.559 0 0 1-.38.19H35.7a.565.565 0 0 1-.53-.43c-.58-2.63-2.06-3.5-5.99-3.5-4.41 0-4.94 1.54-4.94 2.69 0 1.39.62 1.82 6.57 2.59 5.89.76 8.67 1.87 8.67 5.99-.04 4.22-3.49 6.61-9.58 6.61z" fill="#BFBFBF"/><path d="M-66-50h180v155H-66z"/></g></svg>