<svg width="18" height="20" viewBox="0 0 18 20" xmlns="http://www.w3.org/2000/svg"><g fill="none" fill-rule="evenodd"><path d="M-2-2h22v24H-2z"/><path d="M9 20.01c-.273 0-.541-.069-.78-.2l-2.48-1.45c-.37-.2-.18-.28-.07-.31.39-.12.762-.288 1.11-.5a.166.166 0 0 1 .19.02l1.9 1.12c.068.04.152.04.22 0l7.43-4.25a.194.194 0 0 0 .11-.2V5.77a.2.2 0 0 0-.11-.2L9.09 1.34a.28.28 0 0 0-.22 0L1.44 5.57a.243.243 0 0 0-.11.2v8.47a.219.219 0 0 0 .11.2l2.03 1.16c1.1.55 1.79-.09 1.79-.73V6.51a.222.222 0 0 1 .22-.22h.95a.222.222 0 0 1 .22.22v8.36a2.044 2.044 0 0 1-2.19 2.29c-.605.01-1.2-.15-1.72-.46L.79 15.6a1.546 1.546 0 0 1-.78-1.34V5.79a1.546 1.546 0 0 1 .78-1.34L8.22.2c.49-.25 1.07-.25 1.56 0l7.43 4.25c.481.275.779.786.78 1.34v8.47a1.546 1.546 0 0 1-.78 1.34l-7.43 4.25a1.912 1.912 0 0 1-.78.16zm2.29-5.82c-3.26 0-3.93-1.47-3.93-2.72a.222.222 0 0 1 .22-.22h.97a.193.193 0 0 1 .21.18c.15.97.57 1.45 2.55 1.45 1.56 0 2.23-.35 2.23-1.17 0-.48-.18-.83-2.62-1.07-2.03-.2-3.3-.64-3.3-2.24 0-1.49 1.27-2.37 3.39-2.37 2.38 0 3.56.81 3.71 2.57a.293.293 0 0 1-.06.17.263.263 0 0 1-.15.07h-.97a.212.212 0 0 1-.2-.17c-.23-1.01-.8-1.34-2.33-1.34-1.71 0-1.92.59-1.92 1.03 0 .53.24.7 2.55.99 2.29.3 3.37.72 3.37 2.3-.02 1.62-1.36 2.54-3.72 2.54z" fill="#BFBFBF"/></g></svg>