<svg width="19" height="19" viewBox="0 0 19 19" xmlns="http://www.w3.org/2000/svg"><g fill="none" fill-rule="evenodd"><path d="M-2-3h22v24H-2z"/><path d="M9.01.01a9.015 9.015 0 1 0 9.02 9.02A9 9 0 0 0 9.01.01zm0 15.63a6.615 6.615 0 1 1 6.61-6.61 6.6 6.6 0 0 1-6.61 6.61zm4.36-9.08a1.865 1.865 0 1 1-3.73-.01 1.865 1.865 0 0 1 3.73.01zm-.03 4.88a1.865 1.865 0 1 1-3.73.01 1.865 1.865 0 0 1 3.73-.01zm-4.98.04a1.865 1.865 0 1 1-3.73.01 1.865 1.865 0 0 1 3.73-.01zm.05-4.94a1.865 1.865 0 1 1-3.73.01 1.865 1.865 0 0 1 3.73-.01z" fill="#CCC"/></g></svg>