<svg width="101" height="31" viewBox="0 0 101 31" xmlns="http://www.w3.org/2000/svg"><g fill="none" fill-rule="evenodd"><path d="M14.41 11.3a3.11 3.11 0 1 1-3.11-3.1 3.118 3.118 0 0 1 3.11 3.1zm-3.11 4.3a3.1 3.1 0 1 0 3.11 3.1 3.124 3.124 0 0 0-3.11-3.1zm18.76-.6A15.045 15.045 0 1 1 15.01 0a15 15 0 0 1 15.05 15zm-4.02 0a11.03 11.03 0 1 0-11.03 11 10.981 10.981 0 0 0 11.03-11zm-7.32.6a3.1 3.1 0 1 0 3.11 3.1 3.124 3.124 0 0 0-3.11-3.1zm0-7.4a3.1 3.1 0 1 0 3.11 3.1 3.124 3.124 0 0 0-3.11-3.1zm50.94-2.99c.12.03.226.1.3.2v3.2a.319.319 0 0 1-.3.3h-5.31a.319.319 0 0 1-.3-.3v-3.1a.319.319 0 0 1 .3-.3h5.31zm.02 4.83H59.45a.311.311 0 0 0-.3.3l-1.3 5-.1.3-1.61-5.3a.451.451 0 0 0-.3-.3h-4.01a.311.311 0 0 0-.3.3l-1.5 5-.1.3-.1-.3-.61-2.5-.6-2.5a.451.451 0 0 0-.3-.3H40.3V5.69a.3.3 0 0 0-.4-.2l-5.02 1.6a.265.265 0 0 0-.3.3v2.74h-1.3a.33.33 0 0 0-.3.31v3.8a.32.32 0 0 0 .3.3h1.3v4.69c0 3.31 1.81 4.8 5.12 4.8a7.619 7.619 0 0 0 3.61-.8v-4a.2.2 0 0 0-.3-.2 4.008 4.008 0 0 1-1.41.31 1.224 1.224 0 0 1-1.4-1.4v-3.4h2.91a.319.319 0 0 0 .3-.3v-3.2l3.81 12.6a.451.451 0 0 0 .3.3h4.21a.319.319 0 0 0 .3-.3l1.81-5.6.9 2.9.8 2.7a.451.451 0 0 0 .3.3h4.22a.319.319 0 0 0 .3-.3l3.81-12.6v12.6a.32.32 0 0 0 .3.3h5.11a.328.328 0 0 0 .31-.3v-13.3a.33.33 0 0 0-.21-.3zm6.89-5.03h-5.12a.319.319 0 0 0-.3.3V23.7a.32.32 0 0 0 .3.3h5.12a.319.319 0 0 0 .3-.3V5.21a.251.251 0 0 0-.3-.2zm7.1.16h-5.32c-.1 0-.3-.1-.3.1v3.1a.55.55 0 0 0 .3.5h5.32a.319.319 0 0 0 .3-.3v-3.2a.251.251 0 0 0-.3-.2zm-.1 4.95h-5.11a.321.321 0 0 0-.31.3v13.34a.32.32 0 0 0 .31.3h5.11a.319.319 0 0 0 .3-.3V10.42a.319.319 0 0 0-.3-.3zm16.63 6.92c0 3.8-3.2 7.1-7.72 7.1a7.324 7.324 0 0 1-7.62-7.1c0-3.8 3.21-7.1 7.72-7.1a7.318 7.318 0 0 1 7.62 7.1zm-5.45.02a2.219 2.219 0 0 0-2.21-2.4 2.276 2.276 0 0 0-2.21 2.4 2.341 2.341 0 0 0 2.21 2.4 2.269 2.269 0 0 0 2.21-2.4z" fill="#BFBFBF"/><path d="M-40-63h180V92H-40z"/></g></svg>