<svg width="849" height="234" viewBox="0 0 849 234" xmlns="http://www.w3.org/2000/svg"><g fill="none" fill-rule="evenodd"><path fill="#2B303B" fill-rule="nonzero" d="M0 0h849v234H0z"/><path d="M180 0h15L45 234H30L180 0zm30 0h15L75 234H60L210 0zm-60 0h15L15 234H0L150 0zm89 0h15L104 234H89L239 0zm30 0h15L134 234h-15L269 0zm30 0h15L164 234h-15L299 0zm29 0h15L193 234h-15L328 0zm30 0h15L223 234h-15L358 0zm30 0h15L253 234h-15L388 0zm29 0h15L282 234h-15L417 0zm30 0h15L312 234h-15L447 0zm30 0h15L342 234h-15L477 0zm29 0h15L371 234h-15L506 0zm30 0h15L401 234h-15L536 0zm30 0h15L431 234h-15L566 0zm29 0h15L460 234h-15L595 0zm30 0h15L490 234h-15L625 0zm30 0h15L520 234h-15L655 0zm29 0h15L549 234h-15L684 0zm30 0h15L579 234h-15L714 0zm30 0h15L609 234h-15L744 0zm30 0h15L639 234h-15L774 0zm30 0h15L669 234h-15L804 0zm30 0h15L699 234h-15L834 0z" opacity=".5" fill="#20232B"/></g></svg>